<?xml version="1.0" encoding="utf-8"?>
<!-- Generator: Adobe Illustrator 21.1.0, SVG Export Plug-In . SVG Version: 6.00 Build 0)  -->
<svg version="1.1" id="Capa_1" xmlns="http://www.w3.org/2000/svg" xmlns:xlink="http://www.w3.org/1999/xlink" x="0px" y="0px"
	 viewBox="0 0 792 612" style="enable-background:new 0 0 792 612;" xml:space="preserve">
<style type="text/css">
	.st0{fill:#C6C6C6;}
	.st1{fill:none;}
	.st2{fill:#009FE3;}
	.st3{fill:#009640;}
	.st4{fill:#E30613;}
	.st5{clip-path:url(#SVGID_4_);}
	.st6{fill:#F3E62A;}
	.st7{fill:#C23089;}
	.st8{fill:#3B55A2;}
	.st9{fill:#119B48;}
	.st10{fill:#E52829;}
	.st11{fill:#F49724;}
	.st12{clip-path:url(#SVGID_6_);}
	.st13{clip-path:url(#SVGID_8_);}
	.st14{clip-path:url(#SVGID_10_);}
	.st15{clip-path:url(#SVGID_12_);}
	.st16{fill:#951B81;}
	.st17{fill:none;stroke:#000000;stroke-width:7;stroke-miterlimit:10;}
	.st18{fill:#FFED00;}
</style>
<line class="st1" x1="187.7241058" y1="216.4034576" x2="189.0666199" y2="223.4944"/>
<path class="st2" d="M125.3582306,221.897644l0.017334,0.017334l-0.017334,0.0692444c0,0,0,0-0.0172272-0.017334
	C125.3063278,221.9496613,125.2024155,221.8803101,125.3582306,221.897644z"/>
<path class="st2" d="M189.8212891,226.5739288c-0.6234741-1.9052124-1.0911407-3.4812317-1.3681946-4.5031281
	L189.8212891,226.5739288z"/>
<path class="st2" d="M189.8212891,226.5739288c-0.6234741-1.9052124-1.0911407-3.4812317-1.3681946-4.5031281
	L189.8212891,226.5739288z"/>
<circle class="st17" cx="401.2374573" cy="300.2149658" r="228.039444"/>
<path class="st0" d="M376.5449524,115.4741364c2.8224182,0,5.6448669,0,8.4672852,0
	c7.6574097,4.5723801,15.1487732,9.4579926,23.018219,13.6304321c8.1254883,4.3081665,16.8223572,7.548645,24.894928,11.9437561
	c8.4724426,4.612854,10.0797424,9.7615204,6.1382751,18.5308075c-6.4489441,14.3481293-13.1789551,28.5729523-19.9849548,42.7564545
	c-4.2676697,8.8936768-4.4501648,8.822998-11.5533752,3.628067c-1.7186279,3.431366-3.0368958,7.3197479-5.3947449,10.4166565
	c-2.3416443,3.075592-2.9939575,5.8110962-2.0471802,9.4994202c1.4173279,5.5216064,0.0229187,8.7565155-4.8609009,11.7004395
	c-2.8018494,1.6889191-5.9385986,2.8222198-9.1757202,4.3220062c1.5291138,11.6063995,6.2948914,22.172287,11.3035889,32.6889801
	c2.2984009,4.8259277,4.9736938,9.7102661,5.983429,14.861084c1.9364624,9.8786926,2.7679749,19.9718323,4.1635132,29.9612427
	c0.186676,1.3363647,0.6488342,3.3456421,1.5597839,3.7522888c5.3434143,2.3854675,9.1022339,5.8300781,9.1408691,12.3190613
	c15.2797546-13.6480103,27.7201538-28.5481567,32.9845276-47.9886475c0.0231934,0.0016785-0.5526428-0.0403137-1.3727722-0.1000977
	c0.8108521-1.3848877,1.4325562-2.3561707,1.966217-3.3736267c2.4868469-4.7411804,2.4604797-11.1199341-0.5102539-13.2962952
	c-3.0487366-2.2335205-6.5110779-3.9104309-9.8341675-5.7558594c-0.8136292-0.4518127-5.255188-3.3942871-5.5491333-3.9356384
	c-1.0822754-1.9933167-2.034668-4.0736694-3.2885437-5.9527435c-1.2970276-1.9438171-4.0955505-3.6820374-4.11026-5.5271454
	c-0.035614-4.4755707-1-9.1366272,1.3149109-13.531189c2.3789978-4.5163269,4.4647217-9.2086029,6.3205872-13.9636993
	c0.455658-1.1674957-0.3288269-2.9329071-0.8148804-4.3288116c-0.8406982-2.4143372-2.6921997-4.7492371-2.7084045-7.1270905
	c-0.0488586-7.1615143,0.5372314-14.3304443,0.9785461-21.4901428c0.1126404-1.8270874,0.6063538-3.6306763,1.0085754-5.9212341
	c2.7144775,0.9275513,5.0744019,1.3108215,6.9667358,2.4624481c5.0267639,3.0591888,10.6381531,5.7159119,14.5476379,9.9042511
	c4.3724976,4.6843414,8.1903076,1.90625,12.3673706,1.2063904c0.7049561-0.1181183,1.3284302-0.7648315,2.0298462-0.8555756
	c11.1823425-1.4467621,22.0152893-0.5192413,31.4519958,4.4630432c6.4885254-6.0234833,12.5881653-12.1822815,19.2476501-17.660553
	c3.3717651-2.7737122,6.2895508-0.9400787,6.9472046,3.5780487c0.1098633,0.7545319,0.046936,1.5367889,0.0362549,2.3058319
	c-0.1088257,7.8187408-0.1470947,15.6397552-0.388855,23.4544525c-0.0618896,2.0004578-0.5824585,4.0487671-1.2608643,5.9431
	c-0.3625488,1.0123291-1.8409424,1.6115723-2.2452393,2.6248627c-1.4307861,3.585968,1.4589233,5.966629,2.7279053,8.8162231
	c1.800293,4.0426178,5.6256714,8.7439117,4.6895752,12.0658264c-1.2896118,4.5762024-2.7832031,9.9593506-7.2736816,13.6154175
	c-1.921814,1.564743-3.1810303,4.4314117-5.3140259,6.3332672c-2.3251953,2.0732727-4.0053101,5.0717773-6.5963135,6.5974731
	c-3.8376465,2.2596741-8.8303833,2.3744507-11.9694519,6.1677246c-0.1300659,0.157196-0.838623-0.1643372-1.9414063-0.4117432
	c2.4709778,5.2145386,4.7156372,9.9514465,7.0039673,14.7805786c0.1016235-0.0658875-0.4082031,0.2644958-0.8952332,0.5801392
	c1.4838257,1.5877686,2.7835388,2.9786072,4.0832825,4.3694153c-0.3926697,0.0617981-0.7853394,0.1236267-1.1780396,0.1854553
	c0,0.858429-0.3377991,1.940033,0.0570068,2.5376587c1.9720459,2.98526,3.8674011,6.0966187,6.3008118,8.6827087
	c3.0723267,3.2651367,5.0648193,6.6629639,6.288269,11.1632385c1.8293457,6.7290039,0.7439575,13.2356873,0.5874634,19.8471069
	c-0.010437,0.4399109-0.4422607,0.8590393-0.6326904,1.3071289c-1.9481812,4.584198-3.8314819,9.1970215-5.8529053,13.7485352
	c-0.9428711,2.1229553-2.1482544,4.1293335-3.2741089,6.2633667c-0.6269836-0.7451172-1.265564-1.5039978-1.8611145-2.2117615
	c-3.9662476,5.8012085-3.6333923,11.8804932-2.3613281,18.1334229c1.0706482,5.2626038,1.7638245,10.6029968,2.8684692,15.8575745
	c1.4703064,6.9941101,3.0595398,13.9699707,4.9093323,20.8701782c0.2798462,1.0438538,2.6275024,2.5836792,3.3713379,2.2845459
	c5.3079834-2.1350098,9.6921387,1.8931885,14.6196289,1.8517151c0.4295044-0.0036316,0.9972534,0.3518066,1.2722168,0.7139587
	c1.5284424,2.013031,3.9743652,3.9580383,4.2449951,6.1555481c0.4468384,3.6285095-0.0877686,7.5640869-1.1495361,11.0866089
	c-0.3503418,1.162323-3.5584717,1.7523804-5.5454712,2.0718384c-4.1019287,0.6594543-8.2613525,0.9610291-12.2877808,1.3979797
	c-0.3546753,8.3858032-0.3511963,8.4107971-8.0806274,9.477478c-14.7102356,2.0300598-29.405365,4.1903687-44.1471252,5.9604187
	c-5.9013672,0.7085876-11.9579163,1.0752869-17.8510437,0.5521851c-3.6429749-0.3233948-6.513916-0.0618286-9.1853638,2.3261108
	c-1.528595,1.3664246-2.9550476,2.900116-4.6573181,4.0041809c-1.6433411,1.0658875-3.5195923,1.8940125-5.4058533,2.4345398
	c-2.572937,0.7373352-5.2523193,1.1031189-7.8861084,1.6282043c-1.5394897,0-3.07901,0-4.6184998,0
	c0.094635-1.0080261,0.18927-2.0160522,0.2941895-3.1334534c-3.9389648,0.8576965-7.5458374,1.6430359-11.5521851,2.5154114
	c0.4567261-1.118042,0.7381897-1.8069763,1.1963806-2.9284973c-3.5071716,0.8950806-6.5479736,1.6711426-9.8564758,2.5155029
	c0.575592-1.2318726,1.0033875-2.1474609,0.9685059-2.0728455c-5.1292725-2.6447144-10.2709656-4.6349487-14.5485535-7.7948608
	c-1.9831848-1.4649963-3.4064636-2.4563599-5.8083496-2.2505188c-20.0135193,1.7150269-39.9091187,0.5037537-59.7983093-2.0603638
	c-10.7018127-1.3796692-21.6471863-3.7120056-31.8493958,2.4830933c-0.6087952,0.3697205-1.5016479,0.4500122-2.241394,0.393158
	c-2.5152893-0.1933899-6.6377258,0.2793274-7.2254333-0.9263c-1.7149963-3.5179749-4.7927856-2.4433594-7.1782837-3.4837036
	c-2.5873718-1.1283569-5.133667-2.3507996-7.697876-3.5322266c0.1188049-0.2440186,0.2376099-0.4880066,0.3564148-0.7320251
	c2.2676086,0.4288025,4.5351868,0.8576355,6.8027954,1.2864685c-10.5349121-5.4605103-19.9462891-11.982605-27.8917847-21.6622925
	c1.5991211,0.4010315,2.4759369,0.6209106,3.4068298,0.8543396c-2.1296692-3.5403137-4.32724-6.6984863-6.0261993-10.1053162
	c-6.5893707-13.2132874-10.2272186-27.2995911-11.3361816-41.9677124
	c-0.8990173-11.8912659,0.1820374-23.6057434,6.0440674-34.3292847c1.937851-3.5450134,4.4842377-6.7573853,6.7524109-10.1218262
	c0.2489014,0.1688843,0.4978027,0.3377991,0.7467194,0.5066833c-0.2342224,1.4432373-0.4684601,2.8864441-0.8461304,5.213623
	c5.3747559-6.0284424,11.0508881-9.8330994,18.5334778-10.9853821c0.5658569,9.6836243-3.5697021,17.7314758-7.6876678,25.7841797
	c0.2584076,0.1820984,0.5168304,0.3642273,0.7752533,0.5463257c1.6708374-1.3830872,3.3416901-2.7662048,5.0125122-4.1492615
	c0.3330078,0.0890808,0.6659851,0.1781921,0.9989929,0.2673035c-1.2132568,8.5301208-2.4264984,17.0602417-3.7145691,26.1163635
	c2.0092926-1.4259644,3.3643188-2.3876038,5.4559326-3.8719482c0.2096863,4.482605,0.3592834,8.0257263,0.5456848,11.566925
	c0.1808472,3.4360657,0.3995056,6.8701782,0.6366882,10.9030457c1.5916138-1.4151917,2.3794556-2.1157227,3.6451721-3.2411499
	c2.1765137,7.3986816,4.0374756,14.3220825,8.8933411,20.3374634c0.26297-1.4226379,0.4172363-2.2572632,0.6090698-3.2950439
	c1.7202454,1.591095,3.150238,2.9137573,5.2337341,4.8408203c-0.3251343-2.0023804-0.4706421-3.0046387-0.6521912-4.0003052
	c-2.4799805-13.600647-5.2472229-27.1621704-4.9400635-41.1026917c0.2967529-13.4665222,8.8760071-25.3114929,21.1610413-29.3000793
	c0.8031006-0.2607422,1.6476135-1.4103699,1.8685913-2.2970886c4.1701965-16.7329407,7.8713684-33.5931091,12.4684143-50.2059631
	c3.5811768-12.9417114,8.1922913-25.570755,16.6097717-36.4543152c2.055481-2.6576843,3.3427429-6.071106,4.3639221-9.3310547
	c1.7310486-5.526123,2.5922241-11.2342224,1.6949463-18.0417938c-2.1946106,2.393692-3.9876404,3.9055481-5.2220764,5.7843933
	c-2.9466858,4.4850159-5.8285522,9.0367126-8.3612366,13.7626343c-2.3309326,4.3494415-5.7523804,7.0166016-10.3026428,8.6346893
	c-2.1607666,0.7683868-3.4849854,0.3270111-4.2270813-1.761673c-1.3256531-3.7310028-2.8104553-7.4246216-3.8374939-11.2391968
	c-4.0258789-14.953125-7.4138794-30.2967987-16.0516968-43.3260803c-4.9316406-7.4388275-3.5338745-12.8808136,1.3200684-18.8579254
	c1.2919617-1.5909271,2.4325562-3.3225708,3.8464966-4.7937012c8.2503662-8.5840759,16.553894-17.117157,24.8572083-25.650177
	c2.053833-2.1106567,4.0679321-4.279007,6.2879639-6.2044678c3.266449-2.8330841,5.9788208-2.3251648,8.0924683,1.5273438
	c1.0655823,1.942215,1.7064514,4.1174469,2.704895,6.5986328c8.4621277-5.0796204,17.4769897-6.5763397,27.5304871-5.6876068
	c-1.7827454-2.3175507-2.9245911-3.7025299-3.9579773-5.1641998c-2.9112854-4.1177902-2.2774658-5.4030914,2.6431885-6.7780304
	C363.4831848,119.6184082,369.996582,117.4835815,376.5449524,115.4741364z"/>
<line class="st1" x1="386.0467834" y1="241.9021759" x2="387.3893127" y2="248.9931183"/>
<path class="st2" d="M323.6809082,247.3963776l0.017334,0.017334l-0.017334,0.0692444c0,0,0,0-0.0172119-0.0173492
	C323.6289978,247.4483795,323.5250854,247.3790436,323.6809082,247.3963776z"/>
<path class="st2" d="M388.1439819,252.0726471c-0.6234741-1.9051971-1.091156-3.4812317-1.3682251-4.5031281
	L388.1439819,252.0726471z"/>
<g>
	<path d="M460.1045837,275.4122925c4.9775391,2.7820129,5.4258728,3.5292358,11.5532227,4.6500854
		c6.1273499,1.1208801,17.4993896,3.4655457,29.3804626-1.2420349l2.0172119,4.3604126
		c0,0-20.0396423,5.0265198-32.8921509,0.0947571c-12.852478-4.9317627-11.3206482-4.0724487-11.3206482-4.0724487
		L460.1045837,275.4122925c0,0-11.8851318-8.9375-28.2247314,5.4656677s-31.4836121,12.809082-31.4836121,12.809082
		s-17.9337158-1.1955872-21.5204468,7.1734619c-3.586731,8.3690796-11.5572815,14.7455139-11.5572815,14.7455139
		s7.9705505-3.5867615,13.9484253,0c5.9779053,3.586731,7.1734924,3.586731,14.7455139,3.586731
		c7.571991,0,6.6834106,5.8467712,16.482666,5.8467712c9.7992249,0,13.1451721-4.3630676,14.2038879,2.1237793
		c1.061554,6.5038452,15.4986267-17.733551,20.4376221-27.5507813c0.4603271-0.9149475,11.7584839-20.4559631,11.7584839-20.4559631
		"/>
	<g>
		<path d="M323.6809082,247.3963776c-0.1558228-0.017334-0.0519104,0.052002-0.0172119,0.0692291l-27.2435913,81.1762695
			c0,0-16.9903564-2.4419861-19.3111267-11.6906433c-2.3034973-9.2311707-4.6070251-7.4992371-18.8089905-7.4992371
			c-14.2018738,0-14.6695251-4.0354614-25.6327667-4.0354614c-10.980484,0-12.7124176,0-21.3721466-5.1958313
			s-20.1945343,0-20.1945343,0s11.5348053-9.2486267,16.7306366-21.3722534
			c5.1958466-12.1236267,31.1750183-10.3916626,31.1750183-10.3916626s21.9437256,2.3208313,45.6193848-18.5490723
			c23.6584167-20.8699188,40.8739624-7.9150085,40.8739624-7.9150085L323.6809082,247.3963776z"/>
		<path d="M388.455719,253.0598755c0,0-29.7548218,7.4646606-48.37323,0.3117371
			c-13.0415955-4.9880219-15.864563-5.8886566-16.3842468-5.957901l1.8013-5.4210052
			c7.222168,4.0354614,7.8630066,5.1092682,16.7478943,6.7373047c8.8675232,1.6280212,26.9490356,4.4337769,44.1645813-2.3901062
			c0,0,0.017334,0.0519104,0.034668,0.1385956c0.0172424,0.0518951,0.0345764,0.1039124,0.0519104,0.1731567
			c0.034668,0.1385803,0.0865784,0.3117371,0.1559143,0.5195618c0.0345764,0.1212463,0.0692444,0.2598267,0.1212463,0.3983002
			c0.2770691,1.0218964,0.744751,2.5979309,1.3682251,4.5031281L388.455719,253.0598755z"/>
		<path d="M407.593689,283.4728088c0,0-3.4638977,7.7937622-4.6242676,3.7583008
			c-1.1603699-4.0527954-5.8539734-12.5045776-8.9541321-19.3457947
			c-2.2169495-4.9014282-4.1913757-10.5476074-5.5595703-14.8254395l-0.3117371-0.9872284l-1.3682251-4.5031281
			c-0.052002-0.1384735-0.0866699-0.2770538-0.1212463-0.3983002c-0.0693359-0.2078247-0.1212463-0.3809814-0.1559143-0.5195618
			c-0.017334-0.0692444-0.034668-0.1212616-0.0519104-0.1731567c-0.017334-0.0866852-0.034668-0.1385956-0.034668-0.1385956
			S396.041626,252.869278,407.593689,283.4728088z"/>
	</g>
</g>
<path class="st2" d="M388.1439819,252.0726471c-0.6234741-1.9051971-1.091156-3.4812317-1.3682251-4.5031281
	L388.1439819,252.0726471z"/>
<g>
	<path class="st0" d="M213.4565582,294.2743835c-0.1863098-0.054718-0.3852997-0.0838928-0.5566406-0.1688232
		c-0.5923767-0.2936401-0.943573-0.778717-1.0347748-1.4339294c-0.1188812-0.8540649,0.2091675-1.5664673,0.7535095-2.192627
		c0.2123566-0.2442627,0.4819946-0.4394226,0.6893005-0.6872253c0.3503113-0.4187927,0.6759338-0.8585815,1.0040741-1.2954712
		c0.2696686-0.3590088,0.5283508-0.7248535,0.8817749-1.0118408c0.4153595-0.3372803,0.8877106-0.4283752,1.4072723-0.3683777
		c0.712265,0.0822144,1.2006226,0.491333,1.5866699,1.0583801c0.3003998,0.4412231,0.5800934,0.8988037,0.9090729,1.317627
		c0.2464142,0.3137207,0.5595703,0.5745239,0.8377686,0.8639221c0.4888916,0.5085144,0.8405304,1.0942078,0.908783,1.8082275
		c0.0716248,0.7491455-0.205658,1.3528137-0.8308411,1.7876587c-0.2502899,0.1740723-0.5313263,0.2651672-0.826355,0.3224792
		c-0.1541595,0-0.3083191,0-0.4624786,0c-0.0619049-0.0126648-0.1242981-0.0233154-0.1856232-0.0383606
		c-0.4172668-0.1023254-0.8350983-0.2025146-1.2512054-0.3093567c-0.5184174-0.1331177-1.0424194-0.194458-1.5700531-0.0826721
		c-0.4199371,0.0889893-0.8326721,0.2113342-1.2505035,0.3109436c-0.2059174,0.0490723-0.4160919,0.0802002-0.6243439,0.1194458
		C213.713501,294.2743835,213.5850372,294.2743835,213.4565582,294.2743835z"/>
	<path class="st0" d="M218.9035339,282.5068665c0.1870728,0.0860291,0.3933105,0.1454163,0.5572968,0.2635193
		c0.3661652,0.2637329,0.5477753,0.6586304,0.6127777,1.089447c0.1478424,0.9797974-0.1057434,1.8395081-0.85495,2.5166931
		c-0.2873688,0.2597351-0.6337738,0.4031677-1.0312653,0.3759766c-0.4608307-0.0314941-0.7930298-0.2770691-1.0188599-0.6631775
		c-0.3659973-0.6257935-0.3710022-1.2938843-0.1785736-1.9706116c0.1587219-0.558197,0.4522247-1.0362549,0.9487915-1.3550415
		c0.1817322-0.1166992,0.4022522-0.1729736,0.6050873-0.2568054
		C218.6637421,282.5068665,218.7836304,282.5068665,218.9035339,282.5068665z"/>
	<path class="st0" d="M222.8860016,287.3885803c-0.0587311,0.2028503-0.1017456,0.4119568-0.179245,0.6073608
		c-0.2041931,0.514801-0.5486755,0.9103699-1.0444183,1.1691589c-0.6198883,0.3235779-1.3436127,0.1491394-1.668335-0.4057312
		c-0.2247162-0.3839722-0.2711945-0.7994385-0.1884155-1.2272034c0.1321259-0.6828308,0.475708-1.234436,1.082489-1.5916748
		c0.4367676-0.2571106,0.9001007-0.3276978,1.3644867-0.0617981c0.3646088,0.2087402,0.5350952,0.5500793,0.6080627,0.9499817
		c0.006012,0.0329285,0.0167999,0.0649719,0.0253754,0.0974121
		C222.8860016,287.0802612,222.8860016,287.2344055,222.8860016,287.3885803z"/>
	<path class="st0" d="M210.0393524,286.9517822c0.0532379-0.1779175,0.0873108-0.364563,0.1634064-0.5321045
		c0.2002106-0.4407654,0.5461578-0.6969604,1.0370941-0.7121277c0.3593903-0.0110779,0.680481,0.1231995,0.9511566,0.3553467
		c0.6277161,0.5383606,0.9146881,1.225769,0.824646,2.048645c-0.0631256,0.5768433-0.3889771,1.0574951-0.9540863,1.1853333
		c-0.4219055,0.095459-0.7958069-0.0360107-1.1281891-0.2879944c-0.4974365-0.3771057-0.7710266-0.8897095-0.869339-1.5011292
		c-0.0037384-0.0233154-0.0162506-0.0452271-0.0246887-0.0677795
		C210.0393524,287.2772522,210.0393524,287.1145325,210.0393524,286.9517822z"/>
	<path class="st0" d="M213.8419647,294.2743835c0.208252-0.0392456,0.4184265-0.0703735,0.6243439-0.1194458
		c0.4178314-0.0996094,0.8305664-0.2219543,1.2505035-0.3109436c0.5276337-0.1117859,1.0516357-0.0504456,1.5700531,0.0826721
		c0.4161072,0.106842,0.8339386,0.2070313,1.2512054,0.3093567c0.0613251,0.0150452,0.1237183,0.0256958,0.1856232,0.0383606
		C217.0964508,294.2743835,215.4692078,294.2743835,213.8419647,294.2743835z"/>
	<path class="st0" d="M212.7325134,284.4561462c0.0071106-0.556366,0.1169281-1.0167236,0.4283447-1.4158936
		c0.4799805-0.6152954,1.2698212-0.6380615,1.8386688-0.1624146c0.5205231,0.4352722,0.7649078,1.0117493,0.8477173,1.6703796
		c0.0597687,0.4754639-0.0106049,0.9309082-0.2272644,1.356781c-0.2168579,0.4262695-0.5415192,0.7247009-1.0400848,0.7778625
		c-0.3845062,0.0410156-0.7153931-0.0966187-1.0023346-0.3399963c-0.4792175-0.4064636-0.7236023-0.9408569-0.8136292-1.5527649
		C212.7447205,284.6594849,212.7389374,284.5269165,212.7325134,284.4561462z"/>
</g>
<path class="st18" d="M388.8331604,310.9279785c-0.4597473-0.6113892-0.8630371-1.2486267-1.3690491-1.7897339
	c-0.4303894-0.4602356-1.038147-0.4485779-1.5984802-0.210968c-0.521637,0.2212219-0.6321411,0.7138062-0.6377869,1.2166138
	c-0.0041199,0.3678284,0.0557556,0.7363586,0.0916443,1.1578979c-0.8117065-0.7133484-1.4521179-1.5154114-1.9491272-2.4338684
	c-0.700592-1.2946472-0.8975525-2.6464539-0.3891907-4.0501709c0.3218079-0.8885803,0.9732361-1.4949341,1.809967-1.9099426
	c0.9109192-0.4517822,1.8890076-0.6864929,2.8917236-0.7229309c1.3041382-0.0473938,2.6116638-0.0016174,3.9177551,0.0040283
	c0.0052795,0.046936,0.0105896,0.0938416,0.0158997,0.1407471c-0.1789551,0.0924683-0.3693848,0.1679993-0.5350342,0.2801208
	c-1.2238464,0.8284912-1.1003113,2.9296265,0.211853,3.6650696c0.0997314,0.0559082,0.2014465,0.1088257,0.3048706,0.1575928
	c1.150116,0.5423279,1.6663208,0.3994141,2.3337708-0.6690369c0.4006958-0.6414795,0.7800598-1.2962646,1.1712952-1.9436951
	c0.0716858-0.1186523,0.1542664-0.2307434,0.3386536-0.3285828c0.0189514,0.4051208,0.0201111,0.8123169,0.066803,1.2142029
	c0.0157166,0.135376,0.1171875,0.3021545,0.2306519,0.3778992c0.586792,0.3918457,1.162384,0.5463867,1.6846008-0.1329651
	c0.1186218-0.1543579,0.3328247-0.2352295,0.5829468-0.4037781c-0.2982178,0.9420471-0.5639038,1.7775879-0.8263245,2.6141052
	c-0.0426025,0.1357422-0.0588074,0.280426-0.1076355,0.4134521c-0.2484741,0.6769104-0.0272827,1.1546936,0.5535889,1.5631409
	c1.1411743,0.8024597,2.4501648,0.6757202,3.3422852-0.3692017c0.5314331-0.6224365,0.5602112-1.3134155,0.3341675-2.0932617
	c0.4761353,0.4726257,0.9668884,0.931488,1.425354,1.4206543c1.0119934,1.0797119,1.8944092,2.247467,2.4297791,3.649231
	c0.8646851,2.2640381-0.2947388,4.0973816-2.032959,4.988739c-1.2460632,0.6390076-2.8320618,0.8510132-4.4809265,0.6231689
	c0.2779236-0.1986084,0.5291443-0.3635559,0.7640381-0.5491333c0.4435425-0.3504333,0.7982483-0.7651672,0.6726074-1.3806763
	c-0.1191101-0.5836182-0.699585-1.1175537-1.3548279-1.1266174c-0.6993103-0.0096436-1.4006042,0.1239014-2.1203003,0.1968689
	c-0.0057068-0.0537109-0.0177917-0.2216797-0.0423584-0.3878174c-0.1444702-0.9772339-1.065033-1.505249-2.0449524-1.0474854
	c-0.8833618,0.4126892-1.6883545,0.9931946-2.5269775,1.5012817c-0.0593872,0.0360107-0.1108093,0.085144-0.0714722,0.0544434
	c-0.2067871-0.9881592-0.3551636-2.0327454-0.6549072-3.0319519c-0.2799072-0.9331055-1.0180054-1.2866516-1.8250732-1.0061035
	C389.1915894,310.6657104,388.9751892,310.8442078,388.8331604,310.9279785z"/>
</svg>
